<?xml version="1.0" standalone="no"?>
<!DOCTYPE svg PUBLIC "-//W3C//DTD SVG 20010904//EN"
 "http://www.w3.org/TR/2001/REC-SVG-20010904/DTD/svg10.dtd">
<svg version="1.0" xmlns="http://www.w3.org/2000/svg"
 width="886.000000pt" height="886.000000pt" viewBox="0 0 886.000000 886.000000"
 preserveAspectRatio="xMidYMid meet">
<metadata>
Created by potrace 1.11, written by Peter Selinger 2001-2013
</metadata>
<g transform="translate(0.000000,886.000000) scale(0.100000,-0.100000)"
fill="#000000" stroke="none">
<path d="M2035 7719 c-188 -24 -395 -89 -590 -184 -218 -106 -362 -209 -543
-386 -285 -281 -509 -648 -647 -1063 -195 -586 -157 -1062 112 -1380 131 -156
318 -260 565 -313 126 -27 443 -25 598 5 210 39 348 85 535 179 410 206 748
562 989 1043 129 258 212 506 262 785 27 151 26 457 -3 581 -99 421 -381 671
-828 733 -90 13 -349 12 -450 0z m263 -485 c212 -43 349 -173 402 -380 91
-354 -65 -940 -374 -1404 -204 -308 -446 -492 -756 -576 -90 -25 -320 -25
-406 -1 -233 65 -366 214 -409 462 -45 261 28 621 200 982 247 517 584 831
985 917 89 20 264 19 358 0z"/>
<path d="M4425 7693 c-88 -6 -307 -33 -395 -49 l-85 -15 -550 -1452 c-302
-799 -560 -1480 -573 -1514 l-24 -63 -156 0 -157 0 -77 -213 c-43 -117 -78
-216 -78 -220 0 -4 70 -7 156 -7 145 0 156 -1 149 -17 -71 -187 -345 -919
-365 -979 -76 -224 -93 -397 -50 -508 41 -106 131 -182 265 -223 82 -25 321
-25 455 0 53 10 101 21 108 26 6 4 39 99 72 211 33 113 63 212 65 221 5 14 -9
15 -122 11 -148 -5 -190 6 -223 60 -55 90 -23 200 308 1063 l50 130 264 3 264
2 79 208 c43 114 80 213 82 220 4 9 -52 12 -260 12 l-266 0 212 525 211 526
71 -8 c124 -14 450 -8 560 11 564 95 966 371 1190 813 82 162 135 372 135 529
0 377 -254 619 -723 688 -97 15 -431 20 -592 9z m426 -467 c145 -31 250 -113
284 -222 25 -80 17 -222 -19 -329 -107 -317 -415 -542 -785 -574 -103 -9 -295
0 -352 16 l-26 8 198 535 c108 294 201 541 206 547 13 20 105 31 273 32 99 0
179 -4 221 -13z"/>
<path d="M7900 5768 c-403 -19 -785 -146 -1131 -377 -381 -253 -651 -563 -850
-976 -109 -225 -179 -455 -215 -700 -22 -151 -15 -415 15 -534 50 -198 136
-347 274 -477 94 -89 156 -129 284 -184 183 -79 343 -105 623 -104 240 1 409
21 612 73 168 43 228 68 228 94 1 12 7 114 14 227 8 113 12 207 10 209 -1 2
-54 -13 -116 -33 -139 -45 -310 -74 -477 -82 -298 -15 -519 51 -666 200 -118
119 -171 251 -182 452 -7 138 8 267 52 439 149 583 554 1045 1059 1210 172 56
266 69 471 69 214 -1 325 -16 465 -65 47 -16 92 -32 100 -35 11 -4 46 52 133
216 65 122 116 227 114 234 -8 20 -100 61 -200 90 -164 48 -375 66 -617 54z"/>
<path d="M4864 4854 c-572 -96 -1116 -608 -1325 -1246 -62 -189 -90 -421 -70
-573 69 -518 505 -724 1229 -579 121 24 311 82 403 123 l47 21 6 177 c4 98 9
190 12 206 7 33 0 34 -74 3 -98 -41 -243 -83 -347 -101 -140 -25 -351 -25
-430 -1 -208 63 -294 187 -282 410 2 56 8 109 12 119 6 15 25 17 174 17 482 1
863 81 1134 240 86 51 227 190 276 273 47 79 88 206 101 308 39 318 -148 554
-482 609 -86 14 -286 11 -384 -6z m183 -426 c54 -13 118 -68 134 -115 28 -85
-14 -209 -97 -282 -81 -71 -194 -115 -379 -147 -92 -16 -515 -32 -515 -20 0
20 76 153 128 221 206 276 482 406 729 343z"/>
<path d="M824 1999 c-22 -5 -65 -24 -95 -42 -145 -87 -169 -263 -49 -370 47
-43 80 -58 232 -112 74 -26 100 -51 96 -93 -2 -25 -11 -41 -31 -56 -44 -32
-178 -29 -270 7 -49 19 -69 23 -72 14 -2 -7 -13 -45 -24 -84 -23 -83 -27 -76
69 -109 43 -15 83 -19 185 -19 112 1 138 4 189 24 149 59 215 216 147 350 -36
69 -93 105 -262 165 -109 38 -138 72 -109 126 23 43 138 52 245 19 37 -11 68
-19 70 -17 1 2 13 38 25 81 27 92 29 89 -72 112 -73 16 -209 18 -274 4z"/>
<path d="M2942 1994 c-68 -18 -99 -35 -141 -76 -46 -45 -71 -102 -71 -166 0
-124 62 -190 233 -251 112 -39 143 -56 163 -86 13 -20 14 -30 5 -53 -6 -15
-21 -33 -32 -40 -52 -33 -192 -23 -288 19 -24 11 -46 17 -48 15 -6 -5 -43
-147 -43 -163 0 -20 129 -55 227 -60 250 -15 403 88 403 271 0 122 -83 203
-270 265 -130 43 -168 88 -116 139 25 25 33 27 114 27 61 0 101 -6 135 -19 27
-10 50 -16 53 -13 3 2 15 39 29 82 l23 77 -34 14 c-85 36 -246 44 -342 18z"/>
<path d="M7407 2000 c-141 -36 -221 -127 -221 -250 0 -127 77 -204 259 -259
88 -26 133 -53 141 -85 9 -37 2 -57 -29 -80 -43 -32 -177 -28 -270 6 -47 18
-70 22 -73 15 -2 -7 -13 -43 -24 -82 -23 -82 -22 -84 69 -112 41 -13 90 -17
186 -17 157 0 218 19 289 90 53 52 70 98 70 179 -1 127 -70 197 -249 255 -127
41 -164 71 -153 127 2 10 19 26 38 35 56 28 122 24 265 -17 18 -5 23 3 43 73
12 43 22 81 22 85 0 29 -280 58 -363 37z"/>
<path d="M1570 1991 c0 -4 65 -117 145 -251 l145 -242 0 -179 0 -179 105 0
105 0 0 184 0 184 150 236 c83 129 150 240 150 246 0 7 -38 10 -117 8 l-117
-3 -80 -172 c-44 -95 -83 -169 -87 -165 -4 4 -42 82 -85 175 l-77 167 -119 0
c-65 0 -118 -4 -118 -9z"/>
<path d="M3690 1910 l0 -90 125 0 125 0 2 -337 3 -338 103 -3 102 -3 0 341 0
340 130 0 130 0 0 90 0 90 -360 0 -360 0 0 -90z"/>
<path d="M4780 1570 l0 -430 300 0 300 0 0 90 0 90 -195 0 -195 0 0 85 0 85
175 0 175 0 0 90 0 90 -175 0 -175 0 0 75 0 75 185 0 185 0 0 90 0 90 -290 0
-290 0 0 -430z"/>
<path d="M5819 1998 c-4 -9 -53 -850 -50 -854 2 -2 46 -4 97 -4 l93 0 5 43 c5
42 26 478 27 572 0 42 8 19 49 -140 27 -104 67 -248 88 -320 l39 -130 85 -3
84 -3 97 293 c53 161 100 307 105 323 6 21 11 -24 15 -155 4 -102 10 -251 13
-332 l7 -148 104 0 103 0 -6 108 c-3 59 -14 251 -23 427 l-16 320 -141 3 -141
3 -61 -173 c-34 -95 -73 -216 -87 -268 -15 -52 -29 -102 -32 -110 -3 -8 -16
30 -29 85 -14 55 -50 182 -81 283 l-56 182 -144 0 c-79 0 -144 -1 -144 -2z"/>
</g>
</svg>
