<?xml version="1.0" standalone="no"?>
<!DOCTYPE svg PUBLIC "-//W3C//DTD SVG 20010904//EN"
 "http://www.w3.org/TR/2001/REC-SVG-20010904/DTD/svg10.dtd">
<svg version="1.0" xmlns="http://www.w3.org/2000/svg"
 width="446.000000pt" height="446.000000pt" viewBox="0 0 446.000000 446.000000"
 preserveAspectRatio="xMidYMid meet">
<metadata>
Created by potrace 1.11, written by Peter Selinger 2001-2013
</metadata>
<g transform="translate(0.000000,446.000000) scale(0.100000,-0.100000)"
fill="#000000" stroke="none">
<path d="M3258 4172 l-618 -2 0 -195 0 -195 422 0 423 0 -468 -468 c-257 -257
-467 -472 -467 -477 0 -13 262 -275 275 -275 6 0 217 207 470 460 253 253 463
460 467 460 5 0 8 -187 8 -415 l0 -415 195 0 195 0 0 468 c0 257 3 598 7 759
l6 292 -149 3 c-82 2 -427 2 -766 0z"/>
<path d="M1344 4154 c-604 -82 -1130 -552 -1279 -1144 -46 -179 -47 -192 -52
-806 -5 -607 1 -788 33 -940 113 -548 506 -991 1035 -1165 222 -73 219 -72
944 -77 707 -4 777 -1 972 48 502 126 917 513 1083 1008 72 219 80 292 80 778
l0 424 -195 0 -195 0 0 -337 c0 -375 -10 -536 -40 -651 -112 -438 -452 -761
-899 -852 -93 -19 -137 -20 -739 -20 -531 0 -654 3 -728 15 -440 77 -805 414
-913 844 -37 146 -41 220 -41 822 0 651 4 714 61 883 131 391 454 675 874 768
79 17 141 20 503 25 l412 6 0 193 0 194 -407 -1 c-286 -1 -438 -5 -509 -15z"/>
</g>
</svg>
