<?xml version="1.0" encoding="utf-8"?>
<svg xmlns:xlink="http://www.w3.org/1999/xlink" width="500" zoomAndPan="magnify" viewBox="0 0 375 374.999991" height="500" preserveAspectRatio="xMidYMid meet" version="1.2" baseProfile="tiny-ps" xmlns="http://www.w3.org/2000/svg">
  <title>Op-tec Systems Ltd</title>
  <rect x="-37.5" width="450" fill="#ffffff" y="-37.499999" height="449.999989" fill-opacity="1" />
  <rect x="-37.5" width="450" fill="#ffffff" y="-37.499999" height="449.999989" fill-opacity="1" />
  <rect x="-37.5" width="450" fill="#ffffff" y="-37.499999" height="449.999989" fill-opacity="1" />
  <path fill="#116297" d="M 148.222656 52.742188 C 139.367188 53.128906 131.261719 54.542969 122.894531 57.140625 C 102.738281 63.441406 84.925781 76.019531 72.234375 92.921875 C 62.839844 105.445312 56.121094 121.1875 53.652344 136.492188 C 52.390625 144.414062 52.414062 143.078125 52.3125 183.410156 C 52.183594 221.917969 52.285156 226.726562 53.160156 233.515625 C 54.707031 245.554688 59.261719 259.085938 65.3125 269.707031 C 73.753906 284.5 86.109375 297.230469 100.523438 305.976562 C 112.367188 313.152344 125.289062 317.707031 139.882812 319.789062 C 143.691406 320.328125 144.386719 320.355469 183.644531 320.457031 C 226.785156 320.558594 228.820312 320.507812 236.414062 319.222656 C 268.898438 313.769531 296.59375 292.882812 310.597656 263.277344 C 315.359375 253.21875 318.0625 244.039062 319.558594 232.796875 C 320.25 227.574219 320.457031 220.039062 320.457031 197.09375 L 320.457031 174.664062 L 294.714844 174.664062 L 294.714844 199.28125 C 294.714844 214.714844 294.613281 225.027344 294.433594 226.878906 C 293.378906 238.402344 289.800781 249.234375 283.828125 259.160156 C 278.730469 267.625 270.160156 276.601562 261.898438 282.105469 C 251.730469 288.871094 241.792969 292.652344 229.335938 294.453125 C 226.707031 294.839844 222.074219 294.890625 189.050781 294.992188 C 150.179688 295.09375 146.730469 295.019531 140.527344 294.015625 C 129.949219 292.292969 119.238281 287.96875 110.539062 281.953125 C 105.183594 278.246094 98.027344 271.664062 94.246094 266.929688 C 90.046875 261.734375 85.621094 253.964844 83.019531 247.382812 C 80.730469 241.542969 79.03125 234.625 78.363281 228.21875 C 77.796875 222.996094 77.796875 150.253906 78.363281 145.035156 C 79.90625 130.398438 85.671875 116.765625 95.09375 105.34375 C 97.640625 102.257812 102.738281 97.191406 105.777344 94.722656 C 116.921875 85.691406 130.898438 80.007812 145.417969 78.59375 C 148.351562 78.285156 154.351562 78.207031 173.167969 78.207031 L 197.15625 78.207031 L 197.105469 65.398438 L 197.027344 52.613281 L 174.890625 52.589844 C 162.714844 52.5625 150.71875 52.640625 148.222656 52.742188 Z M 148.222656 52.742188 " fill-opacity="1" fill-rule="nonzero" />
  <path fill="#116297" d="M 221.867188 65.347656 L 221.867188 78.207031 L 276.570312 78.207031 L 246.21875 108.535156 L 215.871094 138.859375 L 224.90625 147.941406 L 233.96875 157.019531 L 264.265625 126.746094 L 294.585938 96.46875 L 294.664062 123.734375 L 294.714844 151 L 320.457031 151 L 320.457031 52.484375 L 221.867188 52.484375 Z M 221.867188 65.347656 " fill-opacity="1" fill-rule="nonzero" />
</svg>